<?xml version="1.0" encoding="UTF-8" standalone="no"?>
<!-- Created with Inkscape (http://www.inkscape.org/) -->

<svg
   width="135.18658mm"
   height="135.1881mm"
   viewBox="0 0 135.18658 135.1881"
   version="1.1"
   id="svg1"
   inkscape:version="1.3.2 (091e20e, 2023-11-25, custom)"
   sodipodi:docname="tds-gaia.svg"
   xml:space="preserve"
   inkscape:export-filename="tds-gaia.png"
   inkscape:export-xdpi="24.049723"
   inkscape:export-ydpi="24.049723"
   xmlns:inkscape="http://www.inkscape.org/namespaces/inkscape"
   xmlns:sodipodi="http://sodipodi.sourceforge.net/DTD/sodipodi-0.dtd"
   xmlns="http://www.w3.org/2000/svg"
   xmlns:svg="http://www.w3.org/2000/svg"><sodipodi:namedview
     id="namedview1"
     pagecolor="#ffffff"
     bordercolor="#000000"
     borderopacity="0.25"
     inkscape:showpageshadow="2"
     inkscape:pageopacity="0.0"
     inkscape:pagecheckerboard="0"
     inkscape:deskcolor="#d1d1d1"
     inkscape:document-units="mm"
     inkscape:zoom="0.69219276"
     inkscape:cx="261.48785"
     inkscape:cy="398.01052"
     inkscape:window-width="1920"
     inkscape:window-height="991"
     inkscape:window-x="-9"
     inkscape:window-y="-9"
     inkscape:window-maximized="1"
     inkscape:current-layer="layer1" /><defs
     id="defs1" /><g
     inkscape:label="Camada 1"
     inkscape:groupmode="layer"
     id="layer1"
     transform="translate(-36.027259,-43.289809)"><path
       style="fill:#1a1a1a;fill-opacity:1;stroke-width:0.673307"
       d="m 123.09699,134.27601 c -4.53874,-0.35003 -7.87892,-1.00439 -11.84671,-2.32086 -16.498032,-5.47387 -28.380183,-19.88594 -30.750855,-37.298257 -0.410293,-3.013523 -0.410293,-8.743849 0,-11.757371 1.80616,-13.266017 8.965964,-24.722246 20.062105,-32.100858 5.64293,-3.752392 12.35152,-6.263292 19.23989,-7.20114 3.01352,-0.410289 8.74384,-0.410289 11.75737,0 17.64469,2.402314 32.03678,14.410647 37.49062,31.281066 2.88591,8.927022 2.88591,18.872212 0,27.79923 -5.42745,16.78876 -19.98353,28.97794 -37.31234,31.24515 -2.09564,0.2742 -7.04188,0.4763 -8.64008,0.35304 z m 15.83537,-15.7095 c 0.65456,-1.26578 1.09433,-4.96349 1.34661,-11.32245 0.0888,-2.23828 0.20207,-4.11023 0.25172,-4.15989 0.0497,-0.0497 1.55857,0.23632 3.35315,0.63552 5.46872,1.21649 8.87468,1.8266 10.78794,1.93246 l 1.82443,0.10093 0.25643,-0.61372 c 0.33798,-0.80889 0.75722,-3.15318 0.99848,-5.583331 0.30491,-3.071057 0.42589,-16.358222 0.18815,-20.66317 -0.32122,-5.816436 -0.8651,-9.320524 -1.56877,-10.107344 -1.63916,-1.832824 -32.26641,-9.951722 -41.591,-11.025247 -2.20824,-0.254234 -2.29623,-0.219874 -2.71071,1.058586 -0.59289,1.82879 -1.28883,10.129831 -1.1439,13.643978 l 0.0581,1.410147 4.18643,1.041822 c 11.15165,2.775158 20.81571,5.680965 22.86832,6.876087 0.75203,0.437866 0.99401,1.009208 1.36832,3.230792 0.47958,2.846427 0.71148,6.29809 0.82891,12.337977 l 0.10624,5.463913 -1.85261,-0.45241 c -10.92386,-2.667585 -21.53236,-5.750756 -24.64823,-7.16355 -1.36868,-0.620601 -1.54371,-0.91252 -1.95077,-3.253745 -0.43302,-2.490537 -0.66362,-5.659196 -0.87884,-12.076647 l -0.20592,-6.139723 -1.33609,-0.310555 C 103.59335,72.061263 97.5491,70.96361 95.904364,70.96361 h -1.192261 l -0.273928,0.757121 c -1.773859,4.90281 -1.764614,29.918449 0.013,35.233219 0.29654,0.88657 0.39625,0.99538 1.333073,1.45462 5.607422,2.74883 36.311542,10.53247 41.960562,10.63719 0.84604,0.0157 0.95406,-0.028 1.18745,-0.47925 z"
       id="path1" /><path
       style="fill:#b3b3b3;stroke-width:0.620972"
       d="m 71.587355,178.44071 c -3.812888,-0.47904 -7.110496,-1.56526 -9.198631,-3.02998 -1.357808,-0.95245 -2.302293,-2.2586 -2.302293,-3.18386 v -0.4189 h 14.792056 c 12.54092,0 14.805532,0.0351 14.880522,0.23055 0.0485,0.12674 -0.0744,0.60882 -0.27326,1.07125 -0.471552,1.09608 -1.715972,2.22737 -3.432482,3.12041 -3.02887,1.57576 -5.78655,2.15603 -10.60489,2.23142 -1.80729,0.0283 -3.54475,0.0189 -3.861022,-0.0216 z M 59.7989,169.39897 c -0.149374,-0.0601 -0.205462,-0.65752 -0.205462,-2.18747 0,-1.76757 0.04153,-2.1206 0.259932,-2.20436 0.142916,-0.0547 7.013581,-0.0998 15.268077,-0.0998 12.73926,0 15.043442,0.0351 15.241292,0.23298 0.17824,0.17824 0.22543,0.67475 0.20035,2.11235 -0.0189,1.03361 -0.0849,1.9638 -0.14885,2.0671 -0.0858,0.13888 -4.065082,0.18445 -15.262972,0.17474 -8.330777,-0.008 -15.239302,-0.0502 -15.352259,-0.0957 z m 0.113524,-7.32041 c -0.292101,-0.108 -0.318797,-0.28887 -0.318797,-2.15938 0,-1.70998 0.04234,-2.05765 0.259932,-2.14119 0.142916,-0.0549 7.013581,-0.0998 15.268078,-0.0998 13.07368,0 15.039722,0.0316 15.252882,0.24468 0.3766,0.37661 0.37708,3.73508 5.9e-4,4.04751 -0.22677,0.18816 -2.773372,0.22602 -15.208092,0.22602 -8.21464,0 -15.079184,-0.0531 -15.254512,-0.11797 z m -0.118647,-7.16777 c -0.157194,-0.0998 -0.198721,-0.65218 -0.164205,-2.17445 l 0.04638,-2.04077 15.270705,-0.0419 c 9.90887,-0.0272 15.327852,0.0151 15.433312,0.12067 0.2114,0.21128 0.25913,3.80148 0.0542,4.06986 -0.1235,0.16171 -3.374852,0.20482 -15.293252,0.20286 -8.325065,-10e-4 -15.231271,-0.0627 -15.347113,-0.13618 z m 2.157058,-7.26752 c -2.052649,-0.34972 -3.994781,-1.43801 -5.525706,-3.09636 -1.220663,-1.32226 -1.881284,-2.6625 -2.719176,-5.51657 -0.371392,-1.2651 -1.16382,-3.96371 -1.760939,-5.99691 -1.623739,-5.52875 -2.258879,-6.86946 -5.034547,-10.62753 -4.284724,-5.80119 -7.694427,-12.01021 -9.321699,-16.97468 -2.586399,-7.890573 -1.951717,-16.467097 1.843696,-24.913295 5.976362,-13.299658 16.716676,-21.213793 31.401805,-23.138849 2.223928,-0.291526 6.627578,-0.329507 8.933588,-0.07704 13.040302,1.427668 24.807733,9.61297 30.664453,21.329879 3.87227,7.746855 5.0853,15.768257 3.52965,23.340665 -1.25089,6.08899 -4.65175,12.9659 -9.97256,20.1656 -2.8179,3.81298 -3.72393,5.68466 -5.133811,10.60543 -2.70931,9.456 -2.97259,10.12537 -4.70201,11.9541 -1.16378,1.23063 -2.31795,1.9758 -4.02741,2.60025 l -1.205102,0.44022 -13.0618,0.0245 c -7.183945,0.0135 -13.442769,-0.0402 -13.908432,-0.11959 z m 25.655832,-7.37592 c 0.98582,-0.22756 1.61312,-1.0163 2.111352,-2.65474 0.23002,-0.75645 1.01282,-3.42326 1.73953,-5.92625 2.18098,-7.512 2.91256,-9.01813 7.24655,-14.91851 4.094161,-5.57391 6.984351,-11.52043 8.065231,-16.59418 0.53623,-2.517142 0.53997,-7.024008 0.008,-9.669929 -1.34376,-6.684273 -5.02282,-13.232768 -9.882231,-17.589731 -7.42001,-6.652872 -16.447622,-9.465584 -25.911452,-8.073205 -11.946538,1.757644 -20.666022,8.616188 -25.285196,19.888767 -1.665347,4.064068 -2.263355,6.935357 -2.258394,10.843723 0.0054,4.366733 0.813353,7.447445 3.252306,12.403215 1.681257,3.4162 3.533769,6.44002 5.944571,9.70326 3.901494,5.28098 4.413699,6.41889 7.19081,15.97469 0.768968,2.64585 1.517793,5.06287 1.66408,5.37116 0.27882,0.58758 0.822521,1.02745 1.537882,1.24425 0.606664,0.18385 23.779741,0.18147 24.576901,-0.003 z"
       id="path2" /></g></svg>
