<?xml version="1.0" encoding="UTF-8" standalone="no"?>
<!-- Created with Inkscape (http://www.inkscape.org/) -->

<svg
   width="135.18658mm"
   height="135.1881mm"
   viewBox="0 0 135.18658 135.1881"
   version="1.1"
   id="svg1"
   inkscape:version="1.3.2 (091e20e, 2023-11-25, custom)"
   sodipodi:docname="tds-gaia 2.svg"
   xml:space="preserve"
   inkscape:export-filename="tds-gaia.png"
   inkscape:export-xdpi="24.049723"
   inkscape:export-ydpi="24.049723"
   xmlns:inkscape="http://www.inkscape.org/namespaces/inkscape"
   xmlns:sodipodi="http://sodipodi.sourceforge.net/DTD/sodipodi-0.dtd"
   xmlns="http://www.w3.org/2000/svg"
   xmlns:svg="http://www.w3.org/2000/svg"><sodipodi:namedview
     id="namedview1"
     pagecolor="#ffffff"
     bordercolor="#000000"
     borderopacity="0.25"
     inkscape:showpageshadow="2"
     inkscape:pageopacity="0.0"
     inkscape:pagecheckerboard="0"
     inkscape:deskcolor="#d1d1d1"
     inkscape:document-units="mm"
     inkscape:zoom="0.97890839"
     inkscape:cx="245.68183"
     inkscape:cy="318.2116"
     inkscape:window-width="1920"
     inkscape:window-height="991"
     inkscape:window-x="-9"
     inkscape:window-y="-9"
     inkscape:window-maximized="1"
     inkscape:current-layer="g12" /><defs
     id="defs1" /><g
     inkscape:label="Camada 1"
     inkscape:groupmode="layer"
     id="layer1"
     transform="translate(-36.027259,-43.289809)"><path
       style="fill:#1a1a1a;fill-opacity:1;stroke-width:0.673307"
       d="m 101.01477,134.27601 c -4.538743,-0.35003 -7.878923,-1.00439 -11.846713,-2.32086 -16.498032,-5.47387 -28.380183,-19.88594 -30.750855,-37.298252 -0.410293,-3.01353 -0.410293,-8.74385 0,-11.75737 1.80616,-13.266021 8.965964,-24.72225 20.062105,-32.100862 5.64293,-3.752392 12.35152,-6.263292 19.23989,-7.20114 3.013523,-0.410289 8.743843,-0.410289 11.757373,0 17.64469,2.402314 32.03678,14.410647 37.49062,31.281066 2.88591,8.927026 2.88591,18.872216 0,27.799228 -5.42745,16.78876 -19.98353,28.97794 -37.31234,31.24515 -2.09564,0.2742 -7.04188,0.4763 -8.64008,0.35304 z m 15.83537,-15.7095 c 0.65456,-1.26578 1.09433,-4.96349 1.34661,-11.32245 0.0888,-2.23828 0.20207,-4.11023 0.25172,-4.15989 0.0497,-0.0497 1.55857,0.23632 3.35315,0.63552 5.46872,1.21649 8.87468,1.8266 10.78794,1.93246 l 1.82443,0.10093 0.25643,-0.61372 c 0.33798,-0.80889 0.75722,-3.15318 0.99848,-5.583332 0.30491,-3.07105 0.42589,-16.35822 0.18815,-20.66317 -0.32122,-5.816433 -0.8651,-9.320521 -1.56877,-10.107341 -1.63916,-1.832824 -32.26641,-9.951722 -41.591003,-11.025247 -2.20824,-0.254234 -2.29623,-0.219874 -2.71071,1.058586 -0.59289,1.82879 -1.28883,10.129831 -1.1439,13.643978 l 0.0581,1.410147 4.18643,1.041822 c 11.151653,2.775158 20.815713,5.680965 22.868323,6.876085 0.75203,0.43787 0.99401,1.00921 1.36832,3.23079 0.47958,2.84643 0.71148,6.29809 0.82891,12.33798 l 0.10624,5.463912 -1.85261,-0.45241 c -10.92386,-2.667582 -21.532363,-5.750752 -24.648233,-7.163552 -1.36868,-0.6206 -1.54371,-0.91252 -1.95077,-3.25374 -0.43302,-2.49054 -0.66362,-5.6592 -0.87884,-12.07665 l -0.20592,-6.139721 -1.33609,-0.310555 c -5.8754,-1.365677 -11.91965,-2.46333 -13.564386,-2.46333 H 72.62988 l -0.273928,0.757121 c -1.773859,4.90281 -1.764614,29.918447 0.013,35.233217 0.29654,0.88657 0.39625,0.99538 1.333073,1.45462 5.607422,2.74883 36.311545,10.53247 41.960565,10.63719 0.84604,0.0157 0.95406,-0.028 1.18745,-0.47925 z"
       id="path1" /><g
       id="g12"
       transform="matrix(0.41502971,0,0,0.41502971,145.30831,7.734897)"><path
         style="fill:#ffffff"
         d="m -88.394636,395.37172 c -3.80353,-0.78954 -4.98547,-1.49564 -13.845624,-8.27151 -3.72832,-2.85126 -6.91215,-5.19617 -7.07519,-5.21092 -0.16304,-0.0147 -1.54591,1.58053 -3.07305,3.54506 -3.51953,4.52757 -5.43843,6.31195 -8.23364,7.65645 -6.30755,3.03393 -13.4419,2.17103 -18.91523,-2.28781 -2.49102,-2.0293 -4.76784,-6.08017 -5.51563,-9.81328 -0.36578,-1.82606 -0.51099,-2.16441 -0.8626,-2.00994 -4.21661,1.85243 -8.89768,2.08739 -13.05951,0.65551 -5.59208,-1.92395 -9.95568,-6.82072 -11.05432,-12.40497 -0.17957,-0.91276 -0.39942,-1.61915 -0.48856,-1.56976 -1.64661,0.91237 -4.48239,2.06454 -5.71831,2.32332 -2.29105,0.47972 -6.03512,0.43025 -8.06142,-0.1065 -6.30231,-1.66943 -11.13018,-6.64288 -12.43205,-12.80689 -0.40052,-1.89638 -0.26443,-7.29877 0.20601,-8.17779 0.28617,-0.53472 0.22558,-0.54872 -2.93934,-0.6791 -2.57049,-0.10589 -3.62899,-0.27396 -5.1745,-0.82163 -3.44739,-1.22161 -6.26469,-3.25476 -8.10216,-5.84705 -2.45395,-3.46201 -3.32325,-6.09682 -3.34418,-10.13607 -0.0263,-5.06667 1.05338,-7.3884 7.02965,-15.11717 2.4064,-3.11207 4.37528,-5.74396 4.37528,-5.84865 0,-0.31442 -2.89231,-2.23628 -5.29167,-3.51616 -2.93558,-1.56593 -6.62401,-2.91715 -10.63965,-3.89773 -1.78073,-0.43484 -3.31861,-0.79062 -3.41751,-0.79062 -0.0989,0 -0.53312,0.62508 -0.96493,1.38906 -1.06751,1.88873 -3.15174,3.76803 -5.28715,4.76731 -2.26669,1.06071 -5.46069,1.30197 -7.8894,0.59592 -0.85581,-0.24879 -6.02333,-2.66875 -11.48337,-5.3777 -9.3427,-4.63529 -10.02514,-5.02232 -11.58768,-6.57174 -3.1602,-3.13365 -4.2684,-7.68086 -2.85098,-11.69825 0.20478,-0.58042 5.51439,-11.15506 11.79914,-23.49922 6.28474,-12.34416 12.94217,-25.42048 14.79429,-29.0585 1.85212,-3.63802 6.4514,-12.68678 10.22063,-20.10833 6.42245,-12.64574 6.95298,-13.59425 8.44185,-15.09294 3.16002,-3.18085 7.94178,-4.35109 11.95617,-2.92604 0.5553,0.19713 5.51749,2.60563 11.0271,5.35224 11.12656,5.54672 12.02222,6.16005 13.5966,9.31066 1.82477,3.65169 1.72883,6.85949 -0.33284,11.12861 -1.38336,2.86453 -1.57332,2.40675 1.87726,4.52403 5.61547,3.44567 11.55203,5.02697 17.64012,4.69873 3.3094,-0.17843 5.9065,-0.7081 10.24402,-2.08923 11.14876,-3.54992 18.38577,-4.01189 25.80321,-1.64713 l 1.32292,0.42176 1.85208,-1.25821 c 1.01865,-0.69201 3.81661,-2.2064 6.21771,-3.36531 2.40109,-1.1589 7.14622,-3.46166 10.54474,-5.11723 6.23848,-3.03906 9.592264,-4.3254 12.738594,-4.88587 2.22476,-0.39632 7.58954,-0.3934 9.78958,0.005 4.222113,0.76517 4.939203,1.06367 21.166673,8.8108 12.3768,5.90879 14.94172,6.87957 21.21665,8.03019 2.72669,0.49999 9.64336,0.68638 12.65002,0.3409 4.42691,-0.50867 12.32057,-2.65916 13.27906,-3.61765 0.14041,-0.1404 -0.47307,-1.68859 -1.49973,-3.78478 -1.12169,-2.29019 -1.83876,-4.13207 -2.02355,-5.19767 -0.58632,-3.38111 0.74654,-7.3849 3.29312,-9.8922 1.19034,-1.17198 2.76473,-2.04495 11.9542202,-6.62836 8.9831,-4.48047 10.85998,-5.32306 12.41299,-5.57254 3.7035598,-0.59496 7.3534798,0.62087 10.0836598,3.35897 1.50008,1.50444 2.00005,2.39871 8.43809,15.09294 7.22803,14.2519 9.63397,18.98393 21.52382,42.33334 16.18297,31.78027 15.433,30.2391 15.74811,32.36176 0.54445,3.66758 -0.72901,7.29165 -3.48638,9.92174 -1.40861,1.34358 -2.62289,2.0159 -11.80622,6.5368 -5.6342,2.77369 -10.83809,5.1683 -11.57507,5.32635 -1.94334,0.41677 -5.32667,0.14606 -7.14471,-0.57168 -1.78531,-0.70481 -4.71947,-3.25486 -5.49557,-4.77616 -0.28217,-0.55309 -0.6289,-1.07723 -0.77051,-1.16475 -0.3891,-0.24047 -4.87137,0.5435 -7.55699,1.32176 -4.40697,1.27709 -8.6150298,3.58411 -12.6189398,6.91819 -2.24552003,1.86986 -5.60511,5.48246 -5.46204,5.87339 0.05,0.13677 1.29488997,1.18315 2.76629997,2.32528 3.23041003,2.5075 5.11345003,4.62589 6.31138003,7.10023 1.41771,2.92828 1.80952,4.83717 1.65636,8.0698 -0.22551,4.75963 -1.87696,8.36049 -5.27884,11.51011 -3.65184003,3.38105 -8.6355,5.00771 -13.4519002,4.3907 -1.24678,-0.15972 -2.37788,-0.29068 -2.51354,-0.29102 -0.13853,-3.5e-4 -0.20991,0.89858 -0.16282,2.05052 0.11206,2.74117 -0.48948,5.45271 -1.819,8.19949 -1.85727,3.83712 -5.5834,6.97632 -9.90651,8.34608 -2.63698,0.83552 -7.96816,0.82278 -10.37655,-0.0248 -0.90492,-0.31846 -1.6911,-0.57902 -1.74707,-0.57902 -0.056,0 -0.16753,1.10133 -0.24792,2.4474 -0.30951,5.18271 -2.76157,9.73414 -6.74407,12.5181 -3.5806,2.50302 -6.84157,3.4513 -11.04904,3.21304 -4.10556,-0.2325 -6.63485,-1.25286 -10.65341,-4.29778 l -2.57361,-1.95006 -0.16107,2.17059 c -0.19276,2.59775 -0.65247,4.21313 -1.90911,6.70849 -3.25802,6.46956 -11.102723,10.20135 -18.302743,8.70676 z"
         id="path2" /><path
         style="fill:#000000"
         d="m 45.670517,296.90738 c 5.4275,-2.70525 10.20651,-5.23533 10.62002,-5.6224 1.20543,-1.12835 1.86455,-2.63536 1.87005,-4.27564 0.005,-1.5924 0.16452,-1.25311 -9.37197,-19.97604 -2.1495,-4.2201 -8.8763,-17.43604 -14.94845,-29.36875 -6.07215,-11.93271 -12.82964,-25.20817 -15.01664,-29.50103 -2.187,-4.29287 -4.28624,-8.14354 -4.66497,-8.55705 -1.12732,-1.23083 -2.60252,-1.85192 -4.3927697,-1.84945 -1.5239001,0.002 -1.9850101,0.19836 -11.5093701,4.89836 -10.8120102,5.33541 -11.5965202,5.85709 -12.2827202,8.16778 -0.71969,2.42345 -0.88533,2.00111 6.2728702,15.99348 4.04236,7.90173 7.31070997,14.33006 19.7074798,38.76145 13.50919,26.62375 17.10631,33.53736 17.87844,34.362 1.16551,1.24479 2.65645,1.87316 4.46095,1.88011 1.43216,0.006 2.01073,-0.24432 11.37708,-4.91282 z"
         id="path10" /><path
         style="fill:#000000"
         d="m -232.59255,301.32334 c 0.58208,-0.27007 1.43373,-0.89254 1.89255,-1.38325 0.77264,-0.82635 4.8721,-8.7173 18.60754,-35.8172 13.44702,-26.53086 15.24909,-30.07673 16.53924,-32.54375 0.76102,-1.45521 3.07152,-5.97959 5.13446,-10.05417 3.4442,-6.80278 3.75218,-7.52816 3.7678,-8.87428 0.0207,-1.77979 -0.465,-3.023 -1.63991,-4.19791 -0.5913,-0.5913 -4.15998,-2.51554 -10.74456,-5.79347 -9.60654,-4.78233 -9.9018,-4.90832 -11.5217,-4.91645 -1.86458,-0.009 -3.30068,0.58963 -4.46815,1.86361 -0.37893,0.41351 -2.53865,4.38324 -4.79936,8.82163 -2.26071,4.43838 -8.89842,17.47572 -14.75047,28.97187 -5.85204,11.49614 -12.22015,23.99771 -14.15135,27.78125 -10.23195,20.04615 -10.31643,20.22498 -10.3056,21.81481 0.0113,1.65387 0.67022,3.16105 1.87517,4.28895 0.41351,0.38707 5.19252,2.91715 10.62003,5.6224 9.36635,4.6685 9.94492,4.91834 11.37708,4.91282 0.902,-0.003 1.93457,-0.20331 2.56723,-0.49686 z"
         id="path9" /><path
         style="fill:#000000"
         d="m -3.7603328,307.8282 c 7.03245,-7.14395 13.1386201,-10.41712 23.3600798,-12.52199 l 1.10271,-0.22707 -16.8874298,-33.16785 c -9.28809,-18.24232 -16.9963102,-33.27672 -17.1293702,-33.40978 -0.14618,-0.14618 -0.85688,0.03 -1.79577,0.44526 -7.58351,3.35378 -18.84388,4.64967 -27.6597,3.18319 -7.23741,-1.20392 -10.41222,-2.41053 -25.64877,-9.74792 -15.027363,-7.23666 -14.941083,-7.2071 -21.034383,-7.20592 -5.14022,9.9e-4 -6.8865,0.4223 -11.559744,2.7889 -1.70119,0.86151 -4.79682,2.35343 -6.87916,3.31537 -5.79679,2.67782 -11.4412,5.53877 -12.98106,6.57963 -2.06157,1.3935 -3.10228,2.45176 -7.01848,7.13683 -5.89259,7.04949 -10.59536,12.2147 -15.4388,16.95697 -4.8684,4.76671 -7.71693,7.18287 -11.28222,9.56975 -1.20375,0.80587 -2.30508,1.68281 -2.4474,1.94873 -0.77242,1.44329 0.11193,4.35376 1.85144,6.09328 1.81863,1.81863 3.26019,2.23719 7.54709,2.19133 4.3202,-0.0462 7.40881,-0.79623 11.61205,-2.81977 3.7459,-1.80337 5.92624,-3.17441 12.46503,-7.83828 2.91042,-2.07589 6.40566,-4.432 7.7672,-5.2358 4.9787,-2.93922 9.65824,-4.55339 14.79418,-5.10313 7.261434,-0.77725 17.390224,2.03775 24.931337,6.92892 1.23693,0.80227 4.51114,3.2264 7.27604,5.38696 2.7649,2.16055 13.00427,10.13532 22.75417,17.72172 9.74989,7.58639 22.48958,17.50433 28.31041,22.03986 5.82084,4.53553 10.6283002,8.24701 10.6832602,8.24773 0.055,7.2e-4 1.54324,-1.46489 3.30729,-3.25692 z"
         id="path8" /><path
         style="fill:#000000"
         d="m -195.05871,339.97299 c 2.79312,-1.00265 3.88488,-2.0997 10.08459,-10.13352 3.18677,-4.12954 6.12999,-8.17618 6.5405,-8.99255 1.48283,-2.94885 1.52573,-6.386 0.11941,-9.56595 -0.82351,-1.8621 -3.21546,-4.40599 -4.98436,-5.30097 -4.2125,-2.13134 -9.38981,-1.5724 -12.96738,1.39995 -0.53881,0.44765 -1.7806,1.8517 -2.75954,3.12009 -10.77649,13.9629 -10.41197,13.44395 -11.08783,15.78533 -0.6115,2.11837 -0.41643,5.5643 0.42019,7.42293 2.54502,5.65402 8.83485,8.34657 14.63442,6.26469 z"
         id="path7" /><path
         style="fill:#000000"
         d="m -178.48526,362.67129 c 2.18345,-0.34213 4.03791,-1.12066 5.57301,-2.33965 1.54157,-1.22412 2.02876,-1.79952 6.48377,-7.65764 5.23414,-6.88262 6.3531,-8.34006 10.37456,-13.51272 1.96744,-2.53065 3.92127,-5.2898 4.34184,-6.13144 2.74799,-5.4992 0.36902,-12.22862 -5.30323,-15.00136 -1.98004,-0.96789 -2.08792,-0.98893 -5.07134,-0.98893 -2.89262,0 -3.13581,0.0431 -4.7625,0.84397 -2.41866,1.19078 -3.59136,2.28984 -6.3785,5.978 -2.51329,3.32578 -6.92399,9.05876 -13.12716,17.06252 -4.58607,5.91727 -4.95241,6.6939 -4.95827,10.51135 -0.004,2.71231 0.0513,3.02748 0.81505,4.63021 1.60804,3.37456 4.51674,5.69713 8.11352,6.47855 2.08113,0.45215 1.86916,0.44524 3.89925,0.12714 z"
         id="path6" /><path
         style="fill:#000000"
         d="m -149.38109,374.29172 c 2.86268,-0.99159 3.92523,-2.00107 8.80773,-8.3679 8.86645,-11.56194 9.4518,-12.37076 9.99402,-13.80951 2.54786,-6.76066 -1.90403,-14.02941 -9.29308,-15.17313 -3.06917,-0.47507 -6.50611,0.5322 -8.94806,2.62243 -1.53735,1.31591 -14.2703,17.94663 -15.01373,19.60967 -1.36156,3.04582 -1.25866,6.32423 0.29814,9.4983 2.56089,5.22127 8.49943,7.57912 14.15498,5.62014 z"
         id="path5" /><path
         style="fill:#000000"
         d="m -126.04464,389.10303 c 2.04799,-0.43829 4.04643,-1.46865 5.59536,-2.88486 0.74964,-0.6854 2.79173,-3.11846 4.53798,-5.40678 1.74625,-2.28833 3.8056,-4.9525 4.57634,-5.92038 3.51791,-4.41775 4.4035,-6.52907 4.23592,-10.09874 -0.13565,-2.88927 -1.13756,-5.1602 -3.25692,-7.38213 -3.18299,-3.33703 -8.59975,-4.37792 -12.78777,-2.45731 -2.17199,0.99606 -3.68141,2.41858 -6.55752,6.17994 -1.59658,2.088 -4.12914,5.38423 -5.62791,7.32495 -3.9898,5.16627 -4.81468,7.33413 -4.24483,11.15579 0.95381,6.39669 7.27243,10.82858 13.52935,9.48952 z"
         id="path4" /><path
         style="fill:#000000"
         d="m -82.044636,389.70411 c 1.639053,-0.47664 3.394673,-1.47818 4.729333,-2.69798 4.71988,-4.31371 4.77821,-11.66163 0.12799,-16.12387 -0.68243,-0.65484 -4.813023,-3.92906 -9.179093,-7.27604 -4.36607,-3.34698 -8.06706,-6.35891 -8.22442,-6.69318 -1.3117,-2.78644 1.65856,-5.17438 4.24104,-3.40958 0.88426,0.60427 10.666253,8.11848 20.475153,15.72834 8.74812,6.78689 10.33374,7.91824 11.93982,8.51915 6.83194,2.55616 14.16024,-1.6629 15.26299,-8.78722 0.43213,-2.79182 -0.22108,-5.36777 -2.04966,-8.08281 -0.90262,-1.34019 -1.55992,-1.87175 -18.84791,-15.24205 -9.57924,-7.40846 -13.36562,-10.48589 -13.60115,-11.05452 -0.74156,-1.79027 0.63086,-3.77665 2.55926,-3.70416 1.31933,0.0496 -0.12517,-0.99542 17.43749,12.61513 3.78354,2.93213 10.06219,7.79736 13.95256,10.81161 3.89038,3.01425 7.69256,5.79143 8.4493,6.17152 1.85257,0.93049 4.75454,1.33525 6.91725,0.96479 4.92315,-0.8433 8.49582,-4.47623 9.26054,-9.41672 0.49852,-3.22069 -0.71671,-6.85136 -3.0864,-9.22105 -0.5856,-0.58559 -6.96568,-5.60698 -14.17795,-11.15862 -14.22839,-10.95231 -23.82899,-18.37992 -24.18813,-18.71342 -0.29131,-0.27051 0.18821,-1.85813 1.09995,-3.6417 1.00895,-1.97377 1.14861,-1.92286 6.43323,2.34515 2.3788,1.92119 10.82759,8.45049 25.89902,20.01497 3.8563,2.95899 7.96396,6.13047 9.12813,7.04774 4.33453,3.41526 5.89079,4.01381 9.9047102,3.80942 2.06181,-0.10498 2.81955,-0.26721 4.08967,-0.87554 2.36837,-1.13437 4.39449997,-3.15964 5.46652,-5.46423 0.82048,-1.76384 0.89918,-2.15027 0.90531,-4.44531 0.008,-3.151 -0.71215,-5.18014 -2.58814003,-7.28838 -0.7128,-0.80105 -9.37772997,-7.73919 -19.71146017,-15.78326 -10.14174,-7.89462 -27.07156,-21.08197 -37.62182,-29.30521 -10.55026,-8.22325 -20.29571,-15.70113 -21.65655,-16.61752 -5.995093,-4.03709 -13.314673,-6.41188 -19.762673,-6.41188 -7.102094,0 -12.059674,2.19854 -23.246364,10.30907 -10.977,7.9585 -18.12786,10.87068 -26.64962,10.853 -7.70941,-0.016 -12.9679,-3.94191 -14.38,-10.73592 -0.40291,-1.93851 -0.34629,-2.94355 0.27484,-4.87829 0.54516,-1.69809 1.6937,-2.96619 4.17675,-4.61149 6.35255,-4.20932 15.11725,-12.78614 24.61504,-24.08741 1.83448,-2.18282 3.33622,-4.05245 3.3372,-4.15475 0.003,-0.35157 -1.98639,-0.75296 -4.55016,-0.9179 -4.265,-0.2744 -8.67269,0.49617 -16.22745,2.83691 -5.66828,1.75625 -7.47507,2.0937 -12.16123,2.27134 -4.41767,0.16747 -7.25625,-0.17177 -11.3403,-1.35528 -2.79812,-0.81086 -7.06437,-2.78186 -9.67042,-4.4677 -1.86533,-1.20668 -2.4049,-1.43279 -2.4049,-1.00779 0,0.11895 -7.7986,15.52708 -17.33021,34.24028 -9.53161,18.7132 -17.32953,34.12376 -17.3287,34.24569 8.3e-4,0.12193 0.92357,0.43911 2.05052,0.70483 5.59258,1.31867 11.33405,3.75773 15.72216,6.67901 l 2.57549,1.71458 1.61284,-1.22657 c 3.25753,-2.47738 6.3955,-3.55154 10.53091,-3.60485 3.04138,-0.0392 5.15447,0.44214 7.98782,1.81961 4.08577,1.98635 7.80838,6.76668 8.72239,11.20071 0.19498,0.94589 0.3836,1.7572 0.41915,1.80292 0.0356,0.0457 0.89083,-0.33293 1.90061,-0.84145 6.27253,-3.15879 14.03024,-2.18038 19.1403,2.41401 2.5562,2.29824 4.46625,5.46685 5.30188,8.79536 0.21102,0.84055 0.35624,2.69932 0.34381,4.4007 l -0.0215,2.94549 0.79709,-0.2286 c 0.43841,-0.12574 1.99622,-0.18524 3.4618,-0.13224 4.61666,0.16695 8.4356,1.79835 11.52824,4.9247 3.00287,3.0356 4.71229,6.74647 4.9649,10.77797 0.0752,1.20054 0.16679,2.18281 0.20347,2.18281 0.0367,0 1.00217,-0.19413 2.14552,-0.43139 4.13553,-0.85819 8.9222,-0.0404 12.50606,2.13672 0.84606,0.51396 2.37945,1.81998 3.40752,2.90227 5.59965,5.89498 6.164884,14.71969 1.37929,21.53413 l -1.3081,1.86266 7.053824,5.37853 c 3.8796,2.9582 7.4778,5.62062 7.99599,5.9165 1.19312,0.68124 3.08911,1.38511 4.11716,1.52845 1.07526,0.14992 3.7878,-0.0267 4.7625,-0.31019 z"
         id="path3" /><path
         style="fill:#ffffff"
         d="m -106.26033,411.3314 c -0.0709,-0.0709 -0.71624,-0.19939 -1.43412,-0.28556 -0.71788,-0.0862 -1.6567,-0.33202 -2.08627,-0.54631 -0.42957,-0.2143 -0.91157,-0.39037 -1.07111,-0.39126 -0.29621,-0.002 -0.83847,-0.26735 -2.62106,-1.28421 -1.14294,-0.65198 -1.2225,-0.71068 -2.75647,-2.03374 -0.61529,-0.53069 -1.38291,-1.39987 -1.70583,-1.93151 -0.32292,-0.53164 -0.67884,-1.03079 -0.79094,-1.10923 -0.57039,-0.39906 -2.11716,-4.46533 -2.62133,-6.89114 -0.4617,-2.22149 -0.53847,-3.21755 -0.39595,-5.13709 0.0972,-1.30968 0.28994,-2.42093 0.42822,-2.46944 0.13827,-0.0485 0.2514,-0.32898 0.2514,-0.62326 0,-0.29429 0.29945,-0.90945 0.66545,-1.36702 0.8541,-1.06779 0.97071,-1.2262 1.48893,-2.02257 0.23674,-0.3638 0.68009,-0.95911 0.98521,-1.32291 0.68177,-0.81288 0.69106,-0.82497 2.13439,-2.77827 0.64511,-0.87305 1.2411,-1.64689 1.32442,-1.71965 0.0833,-0.0728 0.50599,-0.60854 0.93927,-1.19063 0.43327,-0.58208 0.96838,-1.27671 1.18912,-1.54363 1.04942,-1.26896 1.22138,-1.48805 1.59196,-2.02824 0.21829,-0.31819 0.57547,-0.79771 0.79375,-1.06562 0.21829,-0.2679 0.87313,-1.17484 1.45521,-2.01542 0.58209,-0.84059 1.38576,-1.86961 1.78594,-2.28671 0.40018,-0.41711 0.7276,-0.86828 0.7276,-1.0026 0,-0.13433 0.23813,-0.24423 0.52917,-0.24423 0.29104,0 0.52917,-0.10616 0.52917,-0.2359 0,-0.12975 0.29765,-0.31061 0.66146,-0.40192 0.3638,-0.0913 0.66145,-0.28281 0.66145,-0.42556 0,-0.14275 0.1786,-0.25954 0.39688,-0.25954 0.21828,0 0.39687,-0.11906 0.39687,-0.26458 0,-0.14553 0.29766,-0.26459 0.66146,-0.26459 0.3638,0 0.66146,-0.11899 0.66146,-0.26442 0,-0.14544 0.38695,-0.24956 0.8599,-0.23139 0.47294,0.0182 1.157549,-0.0475 1.521351,-0.14602 1.640597,-0.44408 2.124707,-0.49852 4.365625,-0.49089 2.808409,0.01 4.205939,0.17493 5.291667,0.62619 0.436562,0.18144 0.883046,0.35476 0.992187,0.38514 0.109141,0.0304 0.228203,0.0792 0.264583,0.10856 0.03638,0.0293 0.273817,0.0931 0.527637,0.14173 1.422672,0.27256 6.814551,4.70899 6.814551,5.60701 0,0.19223 0.10014,0.34951 0.222533,0.34951 0.32866,0 1.480376,2.26601 2.151624,4.23333 0.577441,1.69239 1.08012,5.18138 0.895824,6.21771 -0.05176,0.29104 -0.161321,1.06495 -0.243474,1.71979 -0.297512,2.37147 -1.429689,5.09059 -3.139729,7.54063 -0.609411,0.87312 -1.062636,1.79586 -1.007165,2.05052 0.06262,0.28751 -0.05694,0.46302 -0.315421,0.46302 -0.228951,0 -0.416275,0.19471 -0.416275,0.43268 0,0.4539 -1.169562,1.68399 -1.601132,1.68399 -0.138024,0 -0.250952,0.18709 -0.250952,0.41577 0,0.4355 -0.606249,1.17173 -0.964865,1.17173 -0.220423,0 -1.015238,0.87821 -1.680968,1.85736 -0.218281,0.32104 -0.734895,1.01673 -1.14803,1.54599 -0.413135,0.52925 -1.067979,1.37899 -1.455208,1.88831 -1.144995,1.50601 -4.116673,4.49118 -4.474366,4.49468 -0.181901,0.002 -0.33073,0.10748 -0.33073,0.23489 0,0.34358 -4.165399,2.3006 -5.660257,2.65934 -1.38774,0.33304 -5.78104,0.66077 -5.99462,0.44718 z"
         id="path11" /><path
         style="fill:#000000"
         d="m -101.70533,405.49719 c 3.271616,-0.8812 5.196358,-2.45381 8.879079,-7.25467 1.411761,-1.84039 2.728275,-3.5117 2.925585,-3.71402 0.197311,-0.20232 0.557566,-0.67857 0.800566,-1.05833 0.404631,-0.63237 2.081175,-2.79789 3.219543,-4.15857 0.83087,-0.99312 2.021059,-3.37772 2.359706,-4.72778 0.362004,-1.44317 0.429881,-3.64841 0.153185,-4.97682 -0.197339,-0.94743 -1.419287,-3.84227 -1.839098,-4.3569 -2.730762,-3.34755 -5.768574,-4.82215 -9.687593,-4.70251 -2.466201,0.0753 -2.813206,0.14279 -4.341304,0.8446 -2.256359,1.03628 -3.747549,2.30551 -5.548269,4.72243 -0.43217,0.58006 -0.88087,1.17371 -0.99709,1.31923 -0.11623,0.14552 -0.41748,0.52137 -0.66944,0.83522 -0.25197,0.31385 -0.63671,0.83388 -0.85499,1.15562 -0.21828,0.32173 -0.93266,1.26403 -1.5875,2.09399 -0.65485,0.82995 -1.48828,1.90258 -1.85209,2.38361 -0.3638,0.48102 -0.86981,1.09765 -1.12448,1.37027 -0.25466,0.27262 -0.46302,0.56844 -0.46302,0.65739 0,0.0889 -0.44648,0.71402 -0.99218,1.38906 -2.29528,2.83927 -3.01584,5.84882 -2.33103,9.73591 0.37118,2.10692 2.2184,4.89383 4.23122,6.38367 1.34352,0.99444 3.67257,2.05661 4.91283,2.24052 1.37433,0.20379 3.70138,0.11571 4.80637,-0.18192 z"
         id="path12" /></g></g></svg>
