<?xml version="1.0" encoding="UTF-8" standalone="no"?>
<!-- Created with Inkscape (http://www.inkscape.org/) -->

<svg
   width="135.18658mm"
   height="135.1881mm"
   viewBox="0 0 135.18658 135.1881"
   version="1.1"
   id="svg1"
   inkscape:version="1.3.2 (091e20e, 2023-11-25, custom)"
   sodipodi:docname="tds-gaia.svg"
   xml:space="preserve"
   xmlns:inkscape="http://www.inkscape.org/namespaces/inkscape"
   xmlns:sodipodi="http://sodipodi.sourceforge.net/DTD/sodipodi-0.dtd"
   xmlns="http://www.w3.org/2000/svg"
   xmlns:svg="http://www.w3.org/2000/svg"><sodipodi:namedview
     id="namedview1"
     pagecolor="#ffffff"
     bordercolor="#000000"
     borderopacity="0.25"
     inkscape:showpageshadow="2"
     inkscape:pageopacity="0.0"
     inkscape:pagecheckerboard="0"
     inkscape:deskcolor="#d1d1d1"
     inkscape:document-units="mm"
     inkscape:zoom="0.69219276"
     inkscape:cx="260.76551"
     inkscape:cy="398.01052"
     inkscape:window-width="1920"
     inkscape:window-height="991"
     inkscape:window-x="-9"
     inkscape:window-y="-9"
     inkscape:window-maximized="1"
     inkscape:current-layer="layer1" /><defs
     id="defs1" /><g
     inkscape:label="Camada 1"
     inkscape:groupmode="layer"
     id="layer1"
     transform="translate(-36.027259,-43.289809)"><path
       style="fill:#000000"
       d="m 99.750419,178.42301 c -6.74096,-0.51985 -11.70182,-1.49172 -17.5948,-3.44695 -24.50297,-8.12983 -42.1504,-29.53471 -45.67134,-55.39558 -0.60936,-4.4757 -0.60936,-12.98641 0,-17.46211 2.68252,-19.70276 13.31631,-36.717612 29.79635,-47.676367 8.38092,-5.573074 18.34454,-9.302276 28.57519,-10.695172 4.4757,-0.609363 12.986411,-0.609363 17.462111,0 26.20599,3.567929 47.5812,21.402771 55.68128,46.458809 4.28617,13.25846 4.28617,28.02911 0,41.28756 -8.06087,24.93476 -29.67966,43.03821 -55.4165,46.40548 -3.11245,0.40722 -10.45863,0.70738 -12.832291,0.52433 z m 23.518771,-23.33182 c 0.97216,-1.87996 1.62532,-7.37182 1.99999,-16.81618 0.13188,-3.32431 0.30012,-6.10454 0.37387,-6.17829 0.0737,-0.0738 2.3148,0.35099 4.9801,0.94387 8.12219,1.80674 13.18074,2.71289 16.02233,2.8701 l 2.70965,0.14991 0.38085,-0.9115 c 0.50196,-1.20137 1.12462,-4.68311 1.48296,-8.29239 0.45284,-4.56115 0.63252,-24.29532 0.27942,-30.689051 -0.47707,-8.638599 -1.28484,-13.842889 -2.32995,-15.011479 -2.43449,-2.72212 -47.92224,-14.780351 -61.771161,-16.374757 -3.27971,-0.377589 -3.41038,-0.326559 -4.02597,1.57222 -0.88057,2.716127 -1.91419,15.044877 -1.69892,20.264107 l 0.0864,2.09436 6.21771,1.54732 c 16.562491,4.12168 30.915611,8.437399 33.964151,10.2124 1.11693,0.65032 1.47632,1.49888 2.03224,4.79839 0.71228,4.22753 1.0567,9.35396 1.23111,18.32443 l 0.15779,8.11503 -2.7515,-0.67191 c -16.22417,-3.96193 -31.979981,-8.54107 -36.607681,-10.63936 -2.0328,-0.92172 -2.29274,-1.35528 -2.89731,-4.83248 -0.64312,-3.69896 -0.9856,-8.40507 -1.30526,-17.936301 l -0.30583,-9.118749 -1.98437,-0.46124 c -8.72617,-2.02831 -17.70314,-3.65855 -20.14591,-3.65855 h -1.77074 l -0.40685,1.12448 c -2.63454,7.28168 -2.6208,44.43504 0.0194,52.32857 0.44042,1.31674 0.58851,1.47834 1.97989,2.16041 8.32817,4.08258 53.930101,15.64287 62.320061,15.79841 1.25653,0.0233 1.41696,-0.0414 1.7636,-0.71177 z"
       id="path1" /></g></svg>
